# xmcd
#
# Track frame offsets:
#	150
#	15959
#	33518
#	56753
#	73679
#	92190
#	108634
#	124631
#	140846
#	159190
#	174817
#	189135
#	204129
#	222487
#	242865
#	255894
#	272842
#	287384
#	304964
#
# Disc length: 4257 seconds
#
# Revision: 1
# Processed by: cddbd v1.5.2PL0 Copyright (c) Steve Scherf et al.
# Submitted via: audiograbber 1.83.01
#
DISCID=06109f13
DTITLE=Сбоорник - Шансон Года CD1
DYEAR=2010
DGENRE=Шансон
TTITLE0=Р.Рай - Радуюсь
TTITLE1=М.Шуфутинский - Глаза в глаза
TTITLE2=У.Ваенга - Курю
TTITLE3=А.Розенбаум - Лето в садоводстве
TTITLE4=С.Михайлов - Королева
TTITLE5=А.Маршал - День ушел
TTITLE6=С.Трофимов и С.Чиграков - Братан
TTITLE7=Артур - Забыть нельзя
TTITLE8=Д.Василевский - Одинокий мужичок
TTITLE9=Лесоповал - Форточка
TTITLE10=В.Захаров и А.Воробей - Встреча
TTITLE11=А.Бандера - Сыпь, тальяночка
TTITLE12=Демидыч - Мамина сирень
TTITLE13=Штар - Долина зеленая
TTITLE14=А.Новиков - Ананасы в шампанском
TTITLE15=И.Круг - Напиши мне
TTITLE16=В.Курас - Самолетик
TTITLE17=В.Цыганова - Мариманы
TTITLE18=А.Дюмин - Человек с гитарою
EXTD=
EXTT0=
EXTT1=
EXTT2=
EXTT3=
EXTT4=
EXTT5=
EXTT6=
EXTT7=
EXTT8=
EXTT9=
EXTT10=
EXTT11=
EXTT12=
EXTT13=
EXTT14=
EXTT15=
EXTT16=
EXTT17=
EXTT18=
PLAYORDER=
